Coordinates
version=1
nRows=19
nColumns=30
inDegrees=yes

Units are S.I. units (second, meters, Newtons, ...)
Angles are in degrees.

endheader
time	floatyaw	floatroll	floatpitch	floatx	floaty	floatz	pro_sup_l	deviation_l	flexion_l	cmc_flexion_l	cmc_abduction_l	mp_flexion_l	ip_flexion_l	2mcp_flexion_l	2mcp_abduction_l	2pm_flexion_l	2md_flexion_l	3mcp_flexion_l	3mcp_abduction_l	3pm_flexion_l	3md_flexion_l	4mcp_flexion_l	4mcp_abduction_l	4pm_flexion_l	4md_flexion_l	5mcp_flexion_l	5mcp_abduction_l	5pm_flexion_l	5md_flexion_l
-0.995000	-160.147433	-5.066637	-73.570646	0.082399	-0.181496	-0.019854	103.338744	4.296117	-1.046089	13.196412	9.401660	-25.915393	-41.213603	29.690288	7.024366	44.144424	30.154915	24.085389	4.335121	45.929032	30.661805	13.276790	-4.421367	53.423727	36.950095	2.273476	-8.425939	62.231933	43.193203
-0.985000	-160.147433	-5.066637	-73.570646	0.082246	-0.181375	-0.020015	103.284448	4.358052	-1.083199	13.148029	9.400014	-25.947861	-41.212289	29.682025	7.024841	44.132790	30.163522	24.064730	4.338942	45.934132	30.670562	13.252115	-4.423237	53.453755	36.956880	2.240186	-8.420011	62.261951	43.206043
-0.975000	-160.147433	-5.066637	-73.570646	0.082062	-0.181213	-0.020199	103.243667	4.428579	-1.133863	13.091248	9.396583	-25.971565	-41.207991	29.677668	7.023571	44.116421	30.168929	24.050134	4.342494	45.931662	30.675340	13.238538	-4.424582	53.475928	36.961119	2.216200	-8.406989	62.273228	43.207733
-0.965000	-160.147433	-5.066637	-73.570646	0.081850	-0.181007	-0.020407	103.223884	4.505561	-1.200736	13.029944	9.400675	-25.983445	-41.201092	29.683456	7.021821	44.095384	30.167220	24.048499	4.344720	45.921421	30.673173	13.243820	-4.422172	53.476139	36.958589	2.213368	-8.394731	62.259518	43.196401
-0.955000	-160.147433	-5.066637	-73.570646	0.081616	-0.180762	-0.020641	103.228956	4.587214	-1.288251	12.969900	9.425641	-25.981598	-41.189783	29.705502	7.019733	44.068317	30.155536	24.065125	4.344226	45.903566	30.662507	13.274692	-4.414698	53.442635	36.946127	2.240214	-8.389886	62.217846	43.172902
-0.945000	-160.147433	-5.066637	-73.570646	0.081367	-0.180485	-0.020897	103.258199	4.672974	-1.399061	12.916383	9.483061	-25.964831	-41.169387	29.746658	7.015856	44.033890	30.133533	24.100807	4.339821	45.878570	30.643977	13.332495	-4.403513	53.371959	36.923438	2.297507	-8.393522	62.149674	43.140304
-0.935000	-160.147433	-5.066637	-73.570646	0.081111	-0.180187	-0.021165	103.306445	4.763177	-1.530343	12.872310	9.576250	-25.933287	-41.134623	29.803760	7.008073	43.993422	30.104333	24.149760	4.331414	45.848528	30.620969	13.409884	-4.392089	53.273155	36.894281	2.376547	-8.400008	62.062110	43.103234
-0.925000	-160.147433	-5.066637	-73.570646	0.080854	-0.179881	-0.021432	103.365568	4.857807	-1.673239	12.837362	9.698371	-25.889675	-41.083636	29.867291	6.995353	43.952340	30.074194	24.200278	4.320515	45.818794	30.599606	13.491618	-4.384524	53.167092	36.866258	2.462047	-8.400125	61.967504	43.067100
-0.915000	-160.147433	-5.066637	-73.570646	0.080598	-0.179579	-0.021688	103.427777	4.955363	-1.816832	12.808269	9.837399	-25.839653	-41.021014	29.924009	6.979101	43.919219	30.050943	24.238427	4.309810	45.798495	30.587851	13.559967	-4.383778	53.080103	36.848859	2.538904	-8.386793	61.880570	43.037074
-0.905000	-160.147433	-5.066637	-73.570646	0.080334	-0.179288	-0.021928	103.489537	5.052473	-1.954138	12.780608	9.984341	-25.790536	-40.957765	29.960840	6.962982	43.902875	30.041865	24.252603	4.301992	45.798660	30.593412	13.601550	-4.390425	53.034583	36.850085	2.598466	-8.359718	61.814378	43.017080
-0.895000	-160.147433	-5.066637	-73.570646	0.080047	-0.179013	-0.022156	103.553699	5.143868	-2.085343	12.751880	10.137953	-25.748927	-40.908281	29.967747	6.950957	43.908842	30.051572	24.236288	4.298569	45.827524	30.620395	13.611115	-4.402508	53.040829	36.872616	2.639339	-8.325766	61.777333	43.009162
-0.885000	-160.147433	-5.066637	-73.570646	0.079720	-0.178757	-0.022383	103.628085	5.222231	-2.215322	12.724386	10.302015	-25.718561	-40.885600	29.938872	6.944575	43.936444	30.079948	24.188247	4.299285	45.884483	30.665516	13.590479	-4.416502	53.093296	36.910878	2.662231	-8.294756	61.771800	43.013067
-0.875000	-160.147433	-5.066637	-73.570646	0.079344	-0.178523	-0.022617	103.721420	5.278443	-2.347056	12.705759	10.477653	-25.699371	-40.896779	29.873092	6.941423	43.977613	30.120537	24.111467	4.302387	45.956378	30.716125	13.544619	-4.428817	53.172357	36.950729	2.663806	-8.273706	61.793954	43.025783
-0.865000	-160.147433	-5.066637	-73.570646	0.078926	-0.178322	-0.022861	103.839391	5.303434	-2.475882	12.706050	10.657191	-25.688443	-40.940481	29.774912	6.936217	44.018671	30.160743	24.012292	4.305585	46.020176	30.752721	13.478280	-4.437086	53.251313	36.973283	2.635300	-8.263533	61.835343	43.041627
-0.855000	-160.147433	-5.066637	-73.570646	0.078481	-0.178167	-0.023109	103.982999	5.292076	-2.588800	12.732503	10.824284	-25.682845	-41.008576	29.655132	6.924339	44.045949	30.185728	23.900030	4.307319	46.053249	30.757086	13.395068	-4.440774	53.307402	36.963245	2.567462	-8.260237	61.887703	43.054219
-0.845000	-160.147433	-5.066637	-73.570646	0.078028	-0.178065	-0.023352	104.148665	5.247701	-2.669129	12.784569	10.959791	-25.682953	-41.091211	29.530061	6.905998	44.054192	30.186490	23.786742	4.307777	46.047590	30.723946	13.299184	-4.441113	53.333811	36.919684	2.458956	-8.259326	61.950278	43.060702
-0.835000	-160.147433	-5.066637	-73.570646	0.077583	-0.178015	-0.023575	104.327688	5.184545	-2.703011	12.851435	11.049150	-25.693766	-41.181859	29.419095	6.888523	44.053727	30.169440	23.687286	4.309120	46.020183	30.670821	13.198984	-4.440563	53.347280	36.864524	2.323910	-8.260188	62.034669	43.066378
-0.825000	-160.147433	-5.066637	-73.570646	0.077157	-0.178007	-0.023767	104.503827	5.125643	-2.683506	12.913173	11.087601	-25.722656	-41.278479	29.341857	6.885149	44.070598	30.161688	23.619827	4.314657	46.011650	30.639400	13.111070	-4.441952	53.385397	36.842630	2.194988	-8.267571	62.161150	43.086669
-0.815000	-160.147433	-5.066637	-73.570646	0.076762	-0.178026	-0.023918	104.651230	5.095665	-2.610356	12.945679	11.081948	-25.774756	-41.380356	29.316305	6.910248	44.136287	30.206299	23.606321	4.327258	46.070606	30.684100	13.062827	-4.447450	53.491550	36.909257	2.119336	-8.289364	62.345758	43.144285
